<svg width="54" height="196" viewBox="0 0 54 196" fill="none" xmlns="http://www.w3.org/2000/svg">
<rect width="54" height="54" rx="10" fill="#FF6347"/>
<path d="M27 8.59088C21.9989 8.59088 21.3745 8.61389 19.4109 8.70134C17.4503 8.79338 16.1157 9.10173 14.9421 9.55736C13.7317 10.0268 12.7038 10.6573 11.6806 11.6805C10.6574 12.7038 10.0253 13.7301 9.55742 14.942C9.10179 16.1156 8.79191 17.4503 8.7014 19.4108C8.60935 21.3745 8.59094 21.9988 8.59094 27C8.59094 32.0011 8.61395 32.6255 8.7014 34.5891C8.79344 36.5482 9.10179 37.8843 9.55742 39.0579C10.0269 40.2668 10.6574 41.2962 11.6806 42.3194C12.7038 43.3411 13.7301 43.9747 14.9421 44.4426C16.1172 44.8967 17.4519 45.2081 19.4109 45.2986C21.3745 45.3907 21.9989 45.4091 27 45.4091C32.0012 45.4091 32.6255 45.3861 34.5892 45.2986C36.5482 45.2066 37.8844 44.8967 39.058 44.4426C40.2669 43.9732 41.2962 43.3411 42.3195 42.3194C43.3412 41.2962 43.9747 40.2714 44.4426 39.0579C44.8967 37.8843 45.2082 36.5482 45.2987 34.5891C45.3907 32.6255 45.4091 32.0011 45.4091 27C45.4091 21.9988 45.3861 21.3745 45.2987 19.4108C45.2066 17.4518 44.8967 16.1141 44.4426 14.942C43.9732 13.7316 43.3412 12.7038 42.3195 11.6805C41.2962 10.6573 40.2715 10.0253 39.058 9.55736C37.8844 9.10173 36.5482 8.79185 34.5892 8.70134C32.6255 8.60929 32.0012 8.59088 27 8.59088ZM27 11.9045C31.9137 11.9045 32.4997 11.9291 34.4404 12.0134C36.2353 12.0978 37.2094 12.3954 37.8568 12.6501C38.719 12.983 39.3295 13.3818 39.9769 14.0246C40.6197 14.6689 41.0186 15.2811 41.3514 16.1432C41.603 16.7906 41.9037 17.7647 41.985 19.5596C42.0725 21.5018 42.0924 22.0847 42.0924 27C42.0924 31.9152 42.0694 32.4997 41.9789 34.4403C41.8853 36.2352 41.5862 37.2093 41.333 37.8567C40.9894 38.7189 40.5982 39.3295 39.9539 39.9768C39.3111 40.6196 38.6898 41.0185 37.8368 41.3514C37.1925 41.603 36.203 41.9037 34.4082 41.985C32.4537 42.0724 31.8784 42.0924 26.954 42.0924C22.028 42.0924 21.4528 42.0693 19.4999 41.9788C17.7034 41.8853 16.714 41.5861 16.0696 41.333C15.1967 40.9893 14.5969 40.5982 13.9541 39.9538C13.3083 39.3111 12.8956 38.6897 12.5734 37.8368C12.3203 37.1925 12.0227 36.203 11.9291 34.4081C11.8601 32.4751 11.8355 31.8784 11.8355 26.977C11.8355 22.074 11.8601 21.4757 11.9291 19.5197C12.0227 17.7249 12.3203 16.7369 12.5734 16.0926C12.8956 15.2182 13.3083 14.6199 13.9541 13.974C14.5969 13.3312 15.1967 12.917 16.0696 12.5964C16.714 12.3417 17.682 12.0426 19.4769 11.9505C21.4328 11.8815 22.0081 11.8585 26.931 11.8585L27 11.9045ZM27 17.5469C21.7765 17.5469 17.547 21.781 17.547 27C17.547 32.2236 21.7811 36.453 27 36.453C32.2236 36.453 36.4531 32.2189 36.4531 27C36.4531 21.7764 32.219 17.5469 27 17.5469ZM27 33.1363C23.6097 33.1363 20.8637 30.3903 20.8637 27C20.8637 23.6096 23.6097 20.8636 27 20.8636C30.3904 20.8636 33.1364 23.6096 33.1364 27C33.1364 30.3903 30.3904 33.1363 27 33.1363ZM39.0365 17.1741C39.0365 18.3937 38.0455 19.3832 36.8274 19.3832C35.6078 19.3832 34.6183 18.3922 34.6183 17.1741C34.6183 15.9561 35.6093 14.9666 36.8274 14.9666C38.044 14.965 39.0365 15.9561 39.0365 17.1741Z" fill="white"/>
<rect y="71" width="54" height="54" rx="10" fill="#1877F2"/>
<path d="M29.2119 112.245V99.2683H33.5898L34.2406 94.1874H29.2119V90.951C29.2119 89.4849 29.6204 88.481 31.7247 88.481H34.391V83.9511C33.0937 83.8121 31.7897 83.7449 30.4849 83.75C26.6153 83.75 23.9584 86.1124 23.9584 90.4491V94.1779H19.609V99.2588H23.9679V112.245H29.2119Z" fill="white"/>
<rect y="142" width="54" height="54" rx="10" fill="black"/>
<path d="M27.41 151C17.2385 151 9 159.452 9 169.877C9 178.22 14.2745 185.294 21.5878 187.787C22.5083 187.965 22.8459 187.382 22.8459 186.88C22.8459 186.431 22.8305 185.244 22.8228 183.671C17.7018 184.809 16.6217 181.138 16.6217 181.138C15.7841 178.959 14.5736 178.377 14.5736 178.377C12.906 177.207 14.7025 177.23 14.7025 177.23C16.5512 177.362 17.5223 179.175 17.5223 179.175C19.1639 182.061 21.8318 181.227 22.8842 180.745C23.0499 179.524 23.524 178.692 24.0502 178.22C19.9616 177.748 15.6644 176.124 15.6644 168.891C15.6644 166.83 16.3778 165.147 17.5591 163.826C17.352 163.349 16.7307 161.43 17.7202 158.829C17.7202 158.829 19.262 158.323 22.783 160.764C24.2558 160.344 25.8206 160.137 27.3855 160.127C28.9503 160.137 30.5152 160.344 31.988 160.764C35.4859 158.323 37.0277 158.829 37.0277 158.829C38.0172 161.43 37.3959 163.349 37.2118 163.826C38.3854 165.147 39.0988 166.83 39.0988 168.891C39.0988 176.143 34.7955 177.74 30.6993 178.204C31.3436 178.77 31.9419 179.928 31.9419 181.696C31.9419 184.223 31.9189 186.252 31.9189 186.866C31.9189 187.361 32.2411 187.951 33.1846 187.762C40.5501 185.286 45.82 178.207 45.82 169.877C45.82 159.452 37.5769 151 27.41 151Z" fill="white"/>
</svg>
